<svg width="24" height="24" viewBox="0 0 24 24" fill="none" xmlns="http://www.w3.org/2000/svg">
<path d="M8.25 20.75H15.75C18.511 20.75 20.75 18.511 20.75 15.75V8.25C20.75 5.4885 18.511 3.25 15.75 3.25H8.25C5.4885 3.25 3.25 5.4885 3.25 8.25V15.75C3.25 18.511 5.4885 20.75 8.25 20.75Z" stroke="black" stroke-width="1.25" stroke-miterlimit="10"/>
<path d="M12 7.75C9.653 7.75 7.75 9.653 7.75 12C7.75 14.347 9.653 16.25 12 16.25C14.347 16.25 16.25 14.347 16.25 12C16.25 9.653 14.347 7.75 12 7.75Z" stroke="black" stroke-width="1.25" stroke-miterlimit="10"/>
<path d="M17 6C16.4475 6 16 6.4475 16 7C16 7.5525 16.4475 8 17 8C17.5525 8 18 7.5525 18 7C18 6.4475 17.5525 6 17 6Z" fill="black"/>
</svg>
