<svg width="288" height="106" viewBox="0 0 288 106" fill="none" xmlns="http://www.w3.org/2000/svg">
<g clip-path="url(#clip0)">
<path d="M287.716 35.302C289.794 55.1047 227.264 77.9005 148.048 86.2171C68.8314 94.5348 2.92942 85.2235 0.850195 65.4187C-1.22915 45.6165 61.3025 22.8202 140.519 14.5035C219.734 6.18637 285.638 15.4987 287.716 35.302Z" fill="#0A9B77"/>
<path d="M140.518 14.5034C219.734 6.18572 285.637 15.4986 287.714 35.3018C289.795 55.1051 227.262 77.9004 148.047 86.218L140.518 14.5034Z" fill="#CA6133"/>
<path d="M189.491 75.83C198.718 57.0324 213.291 20.2322 212.578 10.1564C211.983 4.49409 206.565 3.76065 199.734 4.34767L199.667 3.70373L227.789 0.752171C244.49 -1.00139 251.219 4.01998 251.973 14.4809C253.114 26.9846 245.789 45.8431 241.355 57.7618C234.849 74.58 225.699 84.2616 204.226 86.5153L174.572 89.6282L174.504 88.9843C181.662 88.2324 185.373 84.1997 189.491 75.83ZM222.812 7.51908L210.799 48.9941L222.217 47.7966C236.702 46.2753 244.051 30.9294 242.987 17.5074C242.17 8.09213 236.276 6.10629 227.584 7.02004L222.812 7.51908ZM189.66 41.3239C187.113 48.2292 183.019 51.9117 176.543 52.5906C167.851 53.5039 164.174 48.0353 163.08 37.6064C161.824 25.6357 162.852 19.0211 165.073 7.33722L137.463 10.2349L137.531 10.8783C144.019 10.3278 149.609 11.0427 149.011 16.83C147.801 28.2811 122.276 77.2908 100.949 97.3584L145.089 92.7242C134.574 89.4034 136.813 71.3392 142.576 52.3828L153.826 51.2017C153.748 60.3212 153.986 69.147 154.662 75.5802C155.837 86.7815 158.53 92.7447 165.007 92.0657C178.13 90.6883 186.6 64.6807 195.114 40.7513L189.66 41.3239ZM144.668 46.047C147.71 37.2702 151.092 28.4549 154.297 21.2204L154.637 21.1849C154.316 27.9858 154.002 36.4793 153.872 45.0803L144.668 46.047ZM109.56 49.7335C106.868 56.9121 103.43 60.2668 97.8057 60.8578C91.6713 61.5008 88.2236 58.221 87.2679 54.026C86.2832 49.5756 84.8728 47.6411 76.9543 47.6921L76.9259 47.4333C91.501 45.1217 100.535 35.9757 99.6418 27.4812C98.71 18.599 89.572 15.2632 76.9609 16.5871L44.4101 20.0038L44.4771 20.6478C51.137 20.0793 56.8954 20.7762 57.4908 26.4376C58.6669 37.6389 40.8115 85.8433 23.4038 105.499L68.5668 100.758C56.4777 97.213 54.1241 78.0677 60.7672 51.0818L67.756 50.3475C75.4246 49.5436 77.3445 51.4245 77.7907 55.6725C78.8183 65.4555 70.5351 80.12 71.7501 91.702C72.6155 99.9417 77.5644 101.115 81.9962 100.65C95.2888 99.2543 106.211 73.6408 115.014 49.1604L109.56 49.7335ZM68.2491 45.2201L61.9457 45.8836L63.477 40.7783L68.3299 24.6516L74.976 23.9541C80.9415 23.3272 86.9747 23.3416 87.664 29.9087C88.394 36.8605 81.3738 43.8428 68.2491 45.2201V45.2201Z" stroke="black" stroke-width="0.655462"/>
</g>
<defs>
<clipPath id="clip0">
<rect width="288" height="106" fill="white"/>
</clipPath>
</defs>
</svg>
