<svg width="119" height="120" viewBox="0 0 119 120" fill="none" xmlns="http://www.w3.org/2000/svg">
<g clip-path="url(#clip0)">
<path d="M59.5 119.859C71.268 119.859 82.7716 116.369 92.5563 109.831C102.341 103.293 109.967 94.0004 114.471 83.1283C118.974 72.2561 120.152 60.2926 117.856 48.7508C115.561 37.209 109.894 26.6071 101.573 18.2859C93.2514 9.96475 82.6495 4.29795 71.1077 2.00213C59.5659 -0.29368 47.6024 0.884613 36.7303 5.38801C25.8581 9.89141 16.5655 17.5176 10.0276 27.3023C3.48963 37.087 1.48785e-05 48.5907 0 60.3586C3.85726e-05 76.139 6.26878 91.273 17.4272 102.431C28.5856 113.59 43.7196 119.859 59.5 119.859" fill="#7F80AC"/>
<path d="M44.319 40.1263C46.1771 40.1263 46.999 39.4563 46.999 38.1163C46.999 36.5927 46.147 35.9533 44.319 35.9533H33.5967L33.6272 40.1263H44.319ZM28.418 31.719H45.3847C49.803 31.719 52.2398 34.0956 52.2398 37.354C52.2398 40.7658 49.4975 42.7157 45.3847 42.7157H43.1916C48.31 43.0502 50.29 46.0969 53.7915 53.0426H47.1524C43.1915 45.9444 42.3691 44.2076 38.7743 44.2076H33.6272L33.6573 53.0426H28.418L28.418 31.719Z" fill="#EACF6C"/>
<path d="M83.171 44.5436L78.2968 36.0144L73.4231 44.5436H83.171ZM75.3418 31.719H81.2518L94.1366 53.0417H87.984L85.6685 48.9906H70.895L68.5795 53.0417H62.4565L75.3418 31.719Z" fill="#EACF6C"/>
<path d="M53.7208 78.9537C53.7208 83.6443 55.8532 86.2637 59.935 86.2637C64.0775 86.2637 66.1498 83.5831 66.1498 78.9537V74.0489H53.7208L53.7208 78.9537ZM70.5966 68.8096V78.9537C70.5966 86.6604 66.9116 91.3827 59.935 91.3827C52.8672 91.3827 49.2739 86.6293 49.2739 78.9537V68.8096H70.5966Z" fill="#EACF6C"/>
</g>
<defs>
<clipPath id="clip0">
<rect width="119" height="119" fill="white" transform="translate(0 0.858887)"/>
</clipPath>
</defs>
</svg>
