<?xml version="1.0" standalone="no"?>
<!DOCTYPE svg PUBLIC "-//W3C//DTD SVG 20010904//EN"
 "http://www.w3.org/TR/2001/REC-SVG-20010904/DTD/svg10.dtd">
<svg version="1.0" xmlns="http://www.w3.org/2000/svg"
 width="260.000000pt" height="260.000000pt" viewBox="0 0 260.000000 260.000000"
 preserveAspectRatio="xMidYMid meet">
<metadata>
Created by potrace 1.14, written by Peter Selinger 2001-2017
</metadata>
<g transform="translate(0.000000,260.000000) scale(0.100000,-0.100000)"
fill="#000000" stroke="none">
<path d="M1303 2120 c-44 -14 -134 -99 -165 -157 -54 -99 -73 -186 -73 -328 1
-114 4 -139 28 -207 62 -179 156 -268 283 -268 54 0 117 34 167 91 l44 50 36
-45 c43 -52 125 -96 179 -96 161 0 294 195 305 450 14 297 -146 545 -330 516
-55 -9 -128 -57 -162 -106 l-27 -40 -34 45 c-62 80 -167 120 -251 95z m153
-95 c67 -51 127 -175 141 -293 l6 -52 -233 0 -233 0 6 63 c11 122 79 252 152
295 52 30 111 25 161 -13z m410 19 c74 -35 134 -138 160 -272 8 -41 14 -78 14
-83 0 -5 -80 -9 -184 -9 l-183 0 -7 54 c-3 30 -14 81 -25 115 l-19 61 28 42
c61 95 139 129 216 92z m-654 -575 c82 -16 79 -12 58 -67 l-19 -49 46 -7 c67
-9 163 -7 201 3 17 5 32 6 32 2 0 -17 -54 -78 -88 -98 -82 -50 -170 -17 -234
87 -17 29 -60 140 -53 140 2 0 28 -5 57 -11z m507 -15 c3 -3 -2 -26 -11 -53
l-15 -49 51 -6 c71 -8 144 -7 189 3 43 10 45 6 14 -37 -39 -52 -75 -75 -127
-80 -76 -7 -138 36 -187 131 -7 13 -5 32 6 63 15 42 18 44 46 38 17 -3 32 -8
34 -10z"/>
<path d="M991 1071 c-11 -7 -11 -22 4 -92 44 -220 198 -400 400 -468 96 -33
272 -40 365 -16 153 40 318 168 388 302 35 66 72 195 72 250 0 28 -3 33 -24
33 -22 0 -25 -6 -35 -66 -34 -190 -134 -331 -297 -416 -88 -46 -159 -62 -259
-61 -289 2 -525 208 -554 483 -5 45 -10 55 -26 58 -11 1 -26 -2 -34 -7z"/>
</g>
</svg>
