<svg width="24" height="24" viewBox="0 0 24 24" fill="none" xmlns="http://www.w3.org/2000/svg">
<path d="M20.9446 3C21.9411 3 22.1756 3.76205 21.8825 5.52063C21.5308 7.51368 20.5929 14.1963 19.8308 18.2996C19.5377 19.8824 19.0101 20.5858 18.2481 20.5858C17.8378 20.5858 17.3102 20.3513 16.7826 19.9996C16.0206 19.472 12.0931 16.8928 11.2724 16.3066C10.5103 15.779 9.4552 15.0756 10.7448 13.7859C11.2138 13.317 14.3206 10.3274 16.7826 8.04126C17.0171 7.80678 16.8412 7.39645 16.5481 7.39645C16.4895 7.39645 16.4309 7.39645 16.3723 7.45507C13.0896 9.62398 8.51729 12.6722 7.98972 13.0239C7.40353 13.4342 6.87595 13.6687 6.1139 13.6687C5.70357 13.6687 5.29323 13.6101 4.76566 13.4342C3.65189 13.0825 2.53813 12.7308 2.06917 12.5549C0.427832 11.9687 0.779548 11.2653 2.42089 10.5033C8.86901 7.74816 17.2516 4.231 18.4239 3.76205C19.5377 3.2931 20.3584 3 20.9446 3Z" stroke="black" stroke-width="1.25" stroke-miterlimit="10"/>
</svg>
