<svg width="256" height="256" viewBox="0 0 256 256" fill="none" xmlns="http://www.w3.org/2000/svg">
<g clip-path="url(#clip0_319169_1482)">
<path d="M241.284 203.988H214.321C205.851 203.988 201.471 199.118 193.519 190.273C190.237 186.621 186.15 182.075 180.759 176.683C163.539 160.08 157.778 160.08 155.885 160.08C152.367 160.08 151.633 160.08 151.633 166.522V190.701C151.633 200.513 145.858 203.988 129.571 203.988C98.673 203.988 67.0715 185.097 45.0292 153.451C9.63832 103.835 1.96973 68.5194 1.96973 62.4389C1.96973 57.6831 4.05912 52.0115 14.0132 52.0115H40.9793C49.7038 52.0115 52.9807 56.546 55.6919 64.3798C69.8359 105.577 91.3405 134.487 97.6086 134.487C98.7402 134.487 99.8101 134.487 99.8101 127V87.2932C99.2443 77.0478 95.7489 72.7178 92.9397 69.242C90.9623 66.7941 89.0942 64.4834 89.0942 61.0104C89.0942 56.5852 92.71 52.0115 98.757 52.0115H141.13C150.547 52.0115 151.636 59.2656 151.636 64.7243V118.147C151.636 121.81 152.829 122.975 153.123 123.068C155.145 123.059 157.268 121.942 163.615 115.592C182.378 94.6172 196.006 61.7078 196.144 61.3773C198.813 55.1512 203.625 52.0143 210.464 52.0143H237.43C242.136 52.0143 245.48 53.2998 247.37 55.8402C249.154 58.2377 249.465 61.4642 248.297 65.4301C244.676 81.6047 212.937 126.434 211.587 128.339C209.095 132.336 208.56 133.195 211.514 136.993C212.85 138.859 215.895 141.842 219.121 145.001C222.692 148.499 226.742 152.468 230.014 156.333C244.068 172.141 251.039 181.89 253.288 188.884C254.907 194.429 253.577 197.81 252.174 199.675C250.695 201.641 247.605 203.988 241.284 203.988ZM155.888 154.482C160.501 154.482 167.948 156.551 184.686 172.69C190.217 178.221 194.359 182.828 197.687 186.528C205.787 195.538 208.618 198.387 214.321 198.387H241.284C244.41 198.387 246.687 197.647 247.69 196.311C248.838 194.779 248.454 192.315 247.93 190.522C245.429 182.747 234.781 170.121 225.782 159.999C222.636 156.285 218.687 152.415 215.203 149C211.646 145.519 208.579 142.514 207.025 140.337C202.098 134.008 203.697 130.403 206.929 125.23C207.347 124.633 239.584 79.1036 242.853 64.1277L242.906 63.9205C243.365 62.3912 243.732 60.3271 242.881 59.1815C242.124 58.1704 240.195 57.6131 237.436 57.6131H210.47C205.893 57.6131 203.07 59.442 201.311 63.5424C200.762 64.884 187.206 97.6197 167.685 119.441C161.285 125.852 157.691 128.661 153.031 128.661C149.662 128.661 146.037 125.37 146.037 118.15V64.7243C146.037 58.092 144.186 57.6131 141.133 57.6131H98.7598C95.959 57.6131 94.6986 59.5988 94.6986 61.0104C94.6986 62.4389 95.5417 63.548 97.2978 65.7214C100.261 69.3904 104.739 74.9332 105.409 87.1391L105.412 126.997C105.412 133.621 104.81 140.085 97.6086 140.085C85.1031 140.085 62.3662 101.081 50.3956 66.2059C48.0037 59.302 46.1552 57.6131 40.9793 57.6131H14.016C7.57413 57.6131 7.57413 60.2906 7.57413 62.4389C7.57413 67.1862 14.8814 101.538 49.6141 150.224C70.6257 180.392 100.51 198.387 129.577 198.387C146.037 198.387 146.037 194.995 146.037 190.701V166.522C146.034 158.896 147.648 154.482 155.888 154.482Z" fill="black"/>
<path d="M241.284 203.988H214.321C205.851 203.988 201.471 199.118 193.519 190.273C190.237 186.621 186.15 182.075 180.759 176.683C163.539 160.08 157.778 160.08 155.885 160.08C152.367 160.08 151.633 160.08 151.633 166.522V190.701C151.633 200.513 145.858 203.988 129.571 203.988C98.673 203.988 67.0715 185.097 45.0292 153.451C9.63832 103.835 1.96973 68.5194 1.96973 62.4389C1.96973 57.6831 4.05912 52.0115 14.0132 52.0115H40.9793C49.7038 52.0115 52.9807 56.546 55.6919 64.3798C69.8359 105.577 91.3405 134.487 97.6086 134.487C98.7402 134.487 99.8101 134.487 99.8101 127V87.2932C99.2443 77.0478 95.7489 72.7178 92.9397 69.242C90.9623 66.7941 89.0942 64.4834 89.0942 61.0104C89.0942 56.5852 92.71 52.0115 98.757 52.0115H141.13C150.547 52.0115 151.636 59.2656 151.636 64.7243V118.147C151.636 121.81 152.829 122.975 153.123 123.068C155.145 123.059 157.268 121.942 163.615 115.592C182.378 94.6172 196.006 61.7078 196.144 61.3773C198.813 55.1512 203.625 52.0143 210.464 52.0143H237.43C242.136 52.0143 245.48 53.2998 247.37 55.8402C249.154 58.2377 249.465 61.4642 248.297 65.4301C244.676 81.6047 212.937 126.434 211.587 128.339C209.095 132.336 208.56 133.195 211.514 136.993C212.85 138.859 215.895 141.842 219.121 145.001C222.692 148.499 226.742 152.468 230.014 156.333C244.068 172.141 251.039 181.89 253.288 188.884C254.907 194.429 253.577 197.81 252.174 199.675C250.695 201.641 247.605 203.988 241.284 203.988ZM155.888 154.482C160.501 154.482 167.948 156.551 184.686 172.69C190.217 178.221 194.359 182.828 197.687 186.528C205.787 195.538 208.618 198.387 214.321 198.387H241.284C244.41 198.387 246.687 197.647 247.69 196.311C248.838 194.779 248.454 192.315 247.93 190.522C245.429 182.747 234.781 170.121 225.782 159.999C222.636 156.285 218.687 152.415 215.203 149C211.646 145.519 208.579 142.514 207.025 140.337C202.098 134.008 203.697 130.403 206.929 125.23C207.347 124.633 239.584 79.1036 242.853 64.1277L242.906 63.9205C243.365 62.3912 243.732 60.3271 242.881 59.1815C242.124 58.1704 240.195 57.6131 237.436 57.6131H210.47C205.893 57.6131 203.07 59.442 201.311 63.5424C200.762 64.884 187.206 97.6197 167.685 119.441C161.285 125.852 157.691 128.661 153.031 128.661C149.662 128.661 146.037 125.37 146.037 118.15V64.7243C146.037 58.092 144.186 57.6131 141.133 57.6131H98.7598C95.959 57.6131 94.6986 59.5988 94.6986 61.0104C94.6986 62.4389 95.5417 63.548 97.2978 65.7214C100.261 69.3904 104.739 74.9332 105.409 87.1391L105.412 126.997C105.412 133.621 104.81 140.085 97.6086 140.085C85.1031 140.085 62.3662 101.081 50.3956 66.2059C48.0037 59.302 46.1552 57.6131 40.9793 57.6131H14.016C7.57413 57.6131 7.57413 60.2906 7.57413 62.4389C7.57413 67.1862 14.8814 101.538 49.6141 150.224C70.6257 180.392 100.51 198.387 129.577 198.387C146.037 198.387 146.037 194.995 146.037 190.701V166.522C146.034 158.896 147.648 154.482 155.888 154.482Z" fill="black"/>
<path d="M241.284 203.988H214.321C205.851 203.988 201.471 199.118 193.519 190.273C190.237 186.621 186.15 182.075 180.759 176.683C163.539 160.08 157.778 160.08 155.885 160.08C152.367 160.08 151.633 160.08 151.633 166.522V190.701C151.633 200.513 145.858 203.988 129.571 203.988C98.673 203.988 67.0715 185.097 45.0292 153.451C9.63832 103.835 1.96973 68.5194 1.96973 62.4389C1.96973 57.6831 4.05912 52.0115 14.0132 52.0115H40.9793C49.7038 52.0115 52.9807 56.546 55.6919 64.3798C69.8359 105.577 91.3405 134.487 97.6086 134.487C98.7402 134.487 99.8101 134.487 99.8101 127V87.2932C99.2443 77.0478 95.7489 72.7178 92.9397 69.242C90.9623 66.7941 89.0942 64.4834 89.0942 61.0104C89.0942 56.5852 92.71 52.0115 98.757 52.0115H141.13C150.547 52.0115 151.636 59.2656 151.636 64.7243V118.147C151.636 121.81 152.829 122.975 153.123 123.068C155.145 123.059 157.268 121.942 163.615 115.592C182.378 94.6172 196.006 61.7078 196.144 61.3773C198.813 55.1512 203.625 52.0143 210.464 52.0143H237.43C242.136 52.0143 245.48 53.2998 247.37 55.8402C249.154 58.2377 249.465 61.4642 248.297 65.4301C244.676 81.6047 212.937 126.434 211.587 128.339C209.095 132.336 208.56 133.195 211.514 136.993C212.85 138.859 215.895 141.842 219.121 145.001C222.692 148.499 226.742 152.468 230.014 156.333C244.068 172.141 251.039 181.89 253.288 188.884C254.907 194.429 253.577 197.81 252.174 199.675C250.695 201.641 247.605 203.988 241.284 203.988ZM155.888 154.482C160.501 154.482 167.948 156.551 184.686 172.69C190.217 178.221 194.359 182.828 197.687 186.528C205.787 195.538 208.618 198.387 214.321 198.387H241.284C244.41 198.387 246.687 197.647 247.69 196.311C248.838 194.779 248.454 192.315 247.93 190.522C245.429 182.747 234.781 170.121 225.782 159.999C222.636 156.285 218.687 152.415 215.203 149C211.646 145.519 208.579 142.514 207.025 140.337C202.098 134.008 203.697 130.403 206.929 125.23C207.347 124.633 239.584 79.1036 242.853 64.1277L242.906 63.9205C243.365 62.3912 243.732 60.3271 242.881 59.1815C242.124 58.1704 240.195 57.6131 237.436 57.6131H210.47C205.893 57.6131 203.07 59.442 201.311 63.5424C200.762 64.884 187.206 97.6197 167.685 119.441C161.285 125.852 157.691 128.661 153.031 128.661C149.662 128.661 146.037 125.37 146.037 118.15V64.7243C146.037 58.092 144.186 57.6131 141.133 57.6131H98.7598C95.959 57.6131 94.6986 59.5988 94.6986 61.0104C94.6986 62.4389 95.5417 63.548 97.2978 65.7214C100.261 69.3904 104.739 74.9332 105.409 87.1391L105.412 126.997C105.412 133.621 104.81 140.085 97.6086 140.085C85.1031 140.085 62.3662 101.081 50.3956 66.2059C48.0037 59.302 46.1552 57.6131 40.9793 57.6131H14.016C7.57413 57.6131 7.57413 60.2906 7.57413 62.4389C7.57413 67.1862 14.8814 101.538 49.6141 150.224C70.6257 180.392 100.51 198.387 129.577 198.387C146.037 198.387 146.037 194.995 146.037 190.701V166.522C146.034 158.896 147.648 154.482 155.888 154.482Z" stroke="black" stroke-width="8"/>
</g>
<defs>
<clipPath id="clip0_319169_1482">
<rect width="256" height="256" fill="white"/>
</clipPath>
</defs>
</svg>
